<svg id="Layer_3" data-name="Layer 3" xmlns="http://www.w3.org/2000/svg" viewBox="0 0 501.21 405.68"><defs><style>.cls-1{fill:#003800;}.cls-2{fill:#ffff9c;}.cls-3{fill:#6a004a;}.cls-4{fill:#ff4a00;}.cls-5{fill:#d47061;}.cls-6{fill:#b30000;}.cls-7{fill:#141212;opacity:0.2;}</style></defs><path class="cls-1" d="M531.76,305.5,551.31,247H473.17c4.13-16,1.74-31.15-6.64-44.11a54.18,54.18,0,0,0-38.08-24.34,53.94,53.94,0,0,0-69.91-42.81A53.89,53.89,0,0,0,277,127.6a53.89,53.89,0,0,0-76.94,28.05A53.87,53.87,0,0,0,158,171.82,54.72,54.72,0,0,0,143,214.7c-14.3,5.78-25.41,16.3-30.57,32.3H50.11l19.56,56.87L50.11,364h66c3.19,4,6.9,6.72,11.06,9.46A52.78,52.78,0,0,0,171.61,441h0a54.1,54.1,0,0,0,69.91,43.4A53.84,53.84,0,0,0,323,492.7a53.86,53.86,0,0,0,77-28A53.89,53.89,0,0,0,457.12,406,53.53,53.53,0,0,0,488,373.45c1.06-3.18,1.8-7.45,2.26-9.45h61Z" transform="translate(-50.11 -101.93)"/><path class="cls-2" d="M483.75,317.71a53.88,53.88,0,0,1-26,77.65A53.9,53.9,0,0,1,400.56,454a53.89,53.89,0,0,1-76.94,28.05,53.89,53.89,0,0,1-81.5-8.11,53.88,53.88,0,0,1-69.9-42.66h0a53.88,53.88,0,0,1-44.47-68.77,53.88,53.88,0,0,1-10.23-81.26,53.89,53.89,0,0,1,26-77.65A53.89,53.89,0,0,1,200.7,145a53.88,53.88,0,0,1,76.94-28.06,53.89,53.89,0,0,1,81.5,8.11,53.88,53.88,0,0,1,69.91,42.66,53.91,53.91,0,0,1,44.48,68.77,53.89,53.89,0,0,1,10.22,81.26Z" transform="translate(-50.11 -101.93)"/><path class="cls-3" d="M294.89,476h-.07c-1.44,0-2.86-.11-4.29-.19a2.1,2.1,0,1,1,.24-4.19c1.39.08,2.78.14,4.19.18a2.1,2.1,0,0,1-.07,4.2Zm19.07-.4a2.1,2.1,0,0,1-.16-4.2c1.4-.11,2.79-.23,4.17-.37a2.11,2.11,0,0,1,.42,4.19c-1.42.14-2.84.26-4.27.37Zm-42.26-1.89a2.07,2.07,0,0,1-.35,0c-1.41-.24-2.82-.49-4.23-.76a2.1,2.1,0,1,1,.8-4.12c1.37.26,2.74.51,4.12.74a2.1,2.1,0,0,1-.34,4.17ZM337,472.32a2.1,2.1,0,0,1-.44-4.16c1.37-.29,2.74-.6,4.09-.92a2.1,2.1,0,1,1,1,4.09c-1.39.33-2.78.64-4.19.94A2.1,2.1,0,0,1,337,472.32Zm-88-4a2,2,0,0,1-.63-.1c-1.37-.42-2.74-.86-4.1-1.32a2.1,2.1,0,0,1,1.34-4c1.33.44,2.66.87,4,1.29a2.1,2.1,0,0,1-.62,4.11ZM359.45,466a2.1,2.1,0,0,1-.7-4.08c1.31-.47,2.62-1,3.92-1.46a2.1,2.1,0,1,1,1.51,3.92c-1.33.51-2.67,1-4,1.49A1.94,1.94,0,0,1,359.45,466Zm-132.21-6a2.08,2.08,0,0,1-.88-.19c-1.31-.61-2.6-1.23-3.88-1.86a2.1,2.1,0,1,1,1.86-3.77c1.25.62,2.51,1.22,3.78,1.81a2.1,2.1,0,0,1-.88,4Zm153.58-3.34a2.1,2.1,0,0,1-1-4c1.24-.64,2.47-1.3,3.69-2a2.1,2.1,0,0,1,2,3.68c-1.25.69-2.51,1.36-3.77,2A2.1,2.1,0,0,1,380.82,456.64Zm-174-7.87a2.12,2.12,0,0,1-1.13-.33c-1.21-.78-2.41-1.56-3.59-2.36a2.1,2.1,0,1,1,2.35-3.49c1.16.78,2.32,1.55,3.5,2.3a2.11,2.11,0,0,1-1.13,3.88Zm194-4.2a2.1,2.1,0,0,1-1.21-3.82c1.14-.81,2.28-1.62,3.4-2.45a2.1,2.1,0,1,1,2.49,3.38c-1.14.85-2.3,1.68-3.47,2.5A2.1,2.1,0,0,1,400.74,444.57ZM188,434.93a2,2,0,0,1-1.35-.5c-1.09-.92-2.18-1.86-3.25-2.81a2.1,2.1,0,0,1,2.79-3.14c1,.93,2.1,1.84,3.17,2.74a2.1,2.1,0,0,1-1.36,3.71Zm230.86-5a2.1,2.1,0,0,1-1.42-3.65c1-.94,2-1.9,3-2.87a2.1,2.1,0,1,1,2.93,3q-1.55,1.49-3.12,2.94A2.13,2.13,0,0,1,418.88,430ZM171.26,418.73a2.1,2.1,0,0,1-1.56-.69c-1-1.06-1.9-2.13-2.84-3.21a2.1,2.1,0,1,1,3.18-2.75c.92,1.06,1.84,2.1,2.78,3.14a2.1,2.1,0,0,1-1.56,3.51Zm263.67-5.68a2.07,2.07,0,0,1-1.34-.49,2.11,2.11,0,0,1-.27-3c.89-1.07,1.77-2.16,2.64-3.25a2.1,2.1,0,1,1,3.29,2.6c-.88,1.13-1.79,2.24-2.7,3.34A2.1,2.1,0,0,1,434.93,413.05ZM156.8,400.46a2.09,2.09,0,0,1-1.73-.91c-.81-1.17-1.61-2.36-2.39-3.56a2.1,2.1,0,1,1,3.52-2.3c.76,1.17,1.54,2.33,2.33,3.48a2.1,2.1,0,0,1-1.73,3.29Zm291.8-6.3a2.07,2.07,0,0,1-1.11-.32,2.09,2.09,0,0,1-.66-2.89c.74-1.19,1.47-2.38,2.18-3.59a2.1,2.1,0,1,1,3.61,2.15c-.73,1.23-1.47,2.45-2.23,3.67A2.12,2.12,0,0,1,448.6,394.16ZM144.89,380.44a2.11,2.11,0,0,1-1.87-1.16q-1-1.9-1.89-3.84a2.1,2.1,0,0,1,3.79-1.81c.6,1.26,1.22,2.51,1.85,3.75a2.11,2.11,0,0,1-.93,2.83A2.14,2.14,0,0,1,144.89,380.44Zm314.75-6.82a2,2,0,0,1-.86-.19,2.1,2.1,0,0,1-1-2.78c.58-1.27,1.14-2.56,1.69-3.85a2.1,2.1,0,0,1,3.87,1.65c-.57,1.32-1.14,2.63-1.73,3.94A2.12,2.12,0,0,1,459.64,373.62ZM135.77,359a2.1,2.1,0,0,1-2-1.41c-.47-1.35-.92-2.71-1.36-4.08a2.1,2.1,0,0,1,4-1.28c.43,1.33.87,2.66,1.33,4a2.1,2.1,0,0,1-1.3,2.67A2,2,0,0,1,135.77,359Zm332.06-7.22a2.15,2.15,0,0,1-.61-.09,2.11,2.11,0,0,1-1.41-2.62c.4-1.33.79-2.68,1.16-4a2.1,2.1,0,1,1,4,1.11c-.38,1.39-.77,2.76-1.18,4.13A2.1,2.1,0,0,1,467.83,351.78ZM129.61,336.52a2.11,2.11,0,0,1-2.06-1.68c-.28-1.4-.55-2.81-.8-4.22a2.1,2.1,0,1,1,4.13-.73c.25,1.37.51,2.75.79,4.11a2.11,2.11,0,0,1-1.64,2.48A2,2,0,0,1,129.61,336.52ZM473,329.05l-.33,0a2.1,2.1,0,0,1-1.75-2.41c.22-1.37.42-2.76.6-4.14a2.1,2.1,0,0,1,4.17.55c-.19,1.42-.4,2.84-.62,4.25A2.1,2.1,0,0,1,473,329.05Zm-346.5-15.63a2.11,2.11,0,0,1-2.1-2c-.09-1.42-.17-2.85-.23-4.29a2.1,2.1,0,0,1,2-2.18,2.07,2.07,0,0,1,2.18,2c.06,1.39.14,2.79.23,4.18a2.1,2.1,0,0,1-1.95,2.24Zm348.59-7.58h-.05a2.1,2.1,0,0,1-2.05-2.15c0-1.39.05-2.79.05-4.19v-.37a2.1,2.1,0,1,1,4.2,0v.35c0,1.45,0,2.88-.05,4.31A2.1,2.1,0,0,1,475.1,305.84ZM126.49,290.11h-.14a2.11,2.11,0,0,1-2-2.23c.09-1.43.2-2.86.33-4.28a2.1,2.1,0,0,1,4.19.37c-.13,1.39-.24,2.78-.33,4.18A2.09,2.09,0,0,1,126.49,290.11Zm347.59-7.92a2.1,2.1,0,0,1-2.09-1.87c-.15-1.39-.32-2.78-.51-4.16a2.1,2.1,0,0,1,4.17-.56c.19,1.41.36,2.84.52,4.26a2.1,2.1,0,0,1-1.86,2.32ZM129.54,267a2,2,0,0,1-.41,0,2.11,2.11,0,0,1-1.65-2.48c.29-1.4.58-2.8.9-4.19a2.1,2.1,0,0,1,4.1.92c-.31,1.36-.6,2.73-.88,4.1A2.1,2.1,0,0,1,129.54,267ZM470,259.25a2.1,2.1,0,0,1-2-1.59c-.34-1.36-.69-2.71-1.07-4.06a2.1,2.1,0,1,1,4.05-1.11c.38,1.37.75,2.76,1.09,4.15a2.1,2.1,0,0,1-1.52,2.55A2.31,2.31,0,0,1,470,259.25Zm-334.3-14.74a2.07,2.07,0,0,1-.69-.11,2.11,2.11,0,0,1-1.3-2.68c.47-1.35,1-2.71,1.46-4.05a2.1,2.1,0,1,1,3.93,1.47c-.49,1.31-1,2.63-1.42,4A2.09,2.09,0,0,1,135.67,244.51Zm327.16-7.45a2.09,2.09,0,0,1-1.95-1.32c-.52-1.29-1.05-2.58-1.59-3.86a2.1,2.1,0,1,1,3.86-1.65c.56,1.31,1.1,2.63,1.63,4a2.09,2.09,0,0,1-1.17,2.72A2,2,0,0,1,462.83,237.06ZM144.76,223a2,2,0,0,1-.95-.23,2.1,2.1,0,0,1-.93-2.82c.65-1.28,1.31-2.55,2-3.81a2.1,2.1,0,1,1,3.7,2c-.66,1.23-1.3,2.48-1.94,3.73A2.08,2.08,0,0,1,144.76,223Zm308-7A2.12,2.12,0,0,1,451,215c-.68-1.22-1.38-2.42-2.09-3.62a2.1,2.1,0,1,1,3.6-2.15c.74,1.22,1.45,2.46,2.15,3.7a2.1,2.1,0,0,1-1.83,3.14ZM156.64,203a2.1,2.1,0,0,1-1.73-3.29c.81-1.18,1.64-2.35,2.48-3.51a2.1,2.1,0,0,1,3.4,2.46c-.82,1.13-1.62,2.28-2.42,3.43A2.09,2.09,0,0,1,156.64,203ZM440,196.57a2.11,2.11,0,0,1-1.68-.83c-.84-1.12-1.69-2.22-2.56-3.32a2.1,2.1,0,0,1,3.29-2.61c.89,1.12,1.76,2.25,2.63,3.39a2.1,2.1,0,0,1-1.68,3.37ZM171.09,184.66a2.1,2.1,0,0,1-1.56-3.51q1.44-1.59,2.91-3.15a2.1,2.1,0,0,1,3.05,2.89c-1,1-1.91,2-2.84,3.08A2.1,2.1,0,0,1,171.09,184.66Zm253.69-5.72a2.11,2.11,0,0,1-1.5-.62c-1-1-2-2-3-2.95a2.1,2.1,0,0,1,2.92-3c1,1,2,2,3,3a2.09,2.09,0,0,1-1.49,3.57Zm-236.95-10.5a2.1,2.1,0,0,1-1.36-3.7q1.64-1.4,3.3-2.74a2.1,2.1,0,0,1,2.64,3.27c-1.09.88-2.16,1.77-3.23,2.67A2.09,2.09,0,0,1,187.83,168.44Zm219.5-4.95a2.14,2.14,0,0,1-1.29-.44c-1.1-.86-2.22-1.7-3.35-2.53a2.1,2.1,0,0,1,2.49-3.38q1.74,1.28,3.43,2.58a2.1,2.1,0,0,1-1.28,3.77Zm-200.77-8.91a2.1,2.1,0,0,1-1.13-3.87c1.2-.77,2.41-1.52,3.63-2.26a2.1,2.1,0,1,1,2.18,3.59c-1.19.72-2.37,1.46-3.55,2.21A2,2,0,0,1,206.56,154.58ZM388,150.48a2.16,2.16,0,0,1-1.06-.28c-1.21-.7-2.42-1.39-3.65-2.06a2.1,2.1,0,0,1,2-3.69c1.26.69,2.51,1.39,3.75,2.11a2.1,2.1,0,0,1-1,3.92Zm-161-7.13a2.1,2.1,0,0,1-.89-4c1.29-.6,2.59-1.19,3.9-1.76a2.1,2.1,0,0,1,1.68,3.85c-1.28.56-2.55,1.13-3.81,1.72A2.13,2.13,0,0,1,227,143.35Zm140.09-3.18a2,2,0,0,1-.8-.16c-1.3-.53-2.6-1-3.91-1.55a2.1,2.1,0,1,1,1.51-3.92c1.34.51,2.67,1,4,1.59a2.1,2.1,0,0,1-.8,4Zm-118.37-5.23a2.1,2.1,0,0,1-.62-4.1q2-.65,4.11-1.23a2.1,2.1,0,1,1,1.15,4c-1.35.38-2.68.78-4,1.2A2.16,2.16,0,0,1,248.69,134.94Zm96.25-2.18a2.49,2.49,0,0,1-.53-.07c-1.35-.36-2.7-.69-4.07-1a2.1,2.1,0,0,1,1-4.09c1.39.33,2.78.67,4.16,1a2.1,2.1,0,0,1-.53,4.14Zm-73.58-3.23a2.11,2.11,0,0,1-.35-4.18c1.41-.23,2.82-.45,4.24-.66a2.1,2.1,0,1,1,.6,4.16c-1.39.2-2.77.42-4.14.65Zm50.69-1.15h-.26c-1.38-.17-2.77-.32-4.16-.46a2.1,2.1,0,1,1,.41-4.18c1.42.14,2.85.29,4.26.47a2.1,2.1,0,0,1-.25,4.18Zm-27.51-1.19a2.1,2.1,0,0,1-.07-4.2c1.42,0,2.85-.08,4.29-.1h0a2.1,2.1,0,0,1,0,4.2c-1.4,0-2.79,0-4.19.1Z" transform="translate(-50.11 -101.93)"/><path class="cls-4" d="M421.42,380.11a12.19,12.19,0,0,1,3.76,2,149.47,149.47,0,0,0-.92-166.7,11.13,11.13,0,0,1-3.29,2.72,145.29,145.29,0,0,1,.45,161.94Z" transform="translate(-50.11 -101.93)"/><path class="cls-4" d="M181.79,384a145.17,145.17,0,0,1,2.92-173,13.23,13.23,0,0,1-3.19-2.84,149.42,149.42,0,0,0-2.74,179A14,14,0,0,1,181.79,384Z" transform="translate(-50.11 -101.93)"/><path class="cls-4" d="M194.4,416.19a1.29,1.29,0,0,1-.75.23,10.12,10.12,0,0,1-8.28-3.33,10.85,10.85,0,0,1-3.29-8.54,12.32,12.32,0,0,1,4-8.28,12.61,12.61,0,0,1,8.33-3.74,10.37,10.37,0,0,1,8.34,3.32,10.92,10.92,0,0,1,3.48,8.4,1.06,1.06,0,0,1-.23.69,10.71,10.71,0,0,1-2.5.8,13.52,13.52,0,0,1-2.65.53.43.43,0,0,1-.33-.15,4.42,4.42,0,0,1-.1-1.06,8.93,8.93,0,0,0-.32-2.14,5.94,5.94,0,0,0-1.42-2.43,4.76,4.76,0,0,0-4-1.55,6.58,6.58,0,0,0-4,1.94,6.69,6.69,0,0,0-2.12,3.92,4.74,4.74,0,0,0,1.37,4.12,6.24,6.24,0,0,0,2.37,1.54,8.8,8.8,0,0,0,2,.44,4.65,4.65,0,0,1,1,.14.47.47,0,0,1,.1.37c0,.27-.19,1.1-.49,2.49A13.71,13.71,0,0,1,194.4,416.19Z" transform="translate(-50.11 -101.93)"/><path class="cls-4" d="M210.48,433.4c0,.06-.17,0-.36-.07a28.42,28.42,0,0,1-2.58-1.87c-1.15-.89-1.91-1.52-2.29-1.89a1.94,1.94,0,0,1-.27-.32.65.65,0,0,1,0-.41c.13-.45.33-1.1.6-2q.5-1.71,1.4-5.13a1.46,1.46,0,0,0-.66-1.41c.25.22-.21-.12-1.38-1-.13-.1-.37.08-.71.52-.47.6-1.1,1.53-1.91,2.81s-1.44,2.2-1.9,2.8c-.12.15-.23.2-.33.17l-.39-.26c-.54-.37-1.36-1-2.46-1.82a22.53,22.53,0,0,1-2.21-1.83A.52.52,0,0,1,195,421c.75-1,1.92-2.39,3.52-4.27s2.78-3.3,3.53-4.28q4.32-5.57,6.48-8.89l.13-.2c.11-.15.32-.14.65,0s1.71,1.16,4.15,3c1.65,1.22,3,2.21,3.93,2.95a10.47,10.47,0,0,1,3.85,5.15,6.44,6.44,0,0,1-1.27,6.08,9,9,0,0,1-2.93,2.64,7.84,7.84,0,0,1-3.76.65c-.31,0-.52,0-.61.16s-.31,1.51-.95,4.55A29.43,29.43,0,0,1,210.48,433.4Zm3.61-16.1a3,3,0,0,0,.67-3.05,6.75,6.75,0,0,0-2.19-2.45c-.83-.64-1.38-.86-1.63-.64a27.42,27.42,0,0,0-2.07,2.52c-.16.2-.39.5-.68.9l-.67.9s.07.19.32.45a13.87,13.87,0,0,0,1.59,1.43Q212.33,419.6,214.09,417.3Z" transform="translate(-50.11 -101.93)"/><path class="cls-4" d="M233.31,446.05c-.09.17-.28.23-.56.16a17.8,17.8,0,0,1-2.78-1.38,21,21,0,0,1-2.62-1.59.91.91,0,0,1-.27-1c.44-1.58.6-2.47.47-2.67a38,38,0,0,0-3.86-2.26A12.79,12.79,0,0,0,221,436a4.6,4.6,0,0,0-1.42,1.25c-.63.71-1.09,1-1.39.95a29.87,29.87,0,0,1-3.39-1.72c-1.49-.82-2.16-1.37-2-1.66s2.95-2.75,8.44-7.5q8.91-7.71,9.74-8.5.48-.45.72-.33c.26.15.65.4,1.18.75s.92.6,1.19.75.66.34,1.19.59.92.44,1.17.58.27.36.24.76q-.12,1.94-1.61,12.81T233.31,446.05Zm-3-19c-.45.32-1.3,1.06-2.58,2.22a18.32,18.32,0,0,0-2.26,2.23c-.09.18.14.44.72.78.29.18.78.47,1.47.85s1,.47,1.19.35a.52.52,0,0,0,.15-.19,16.55,16.55,0,0,0,.79-3A24.27,24.27,0,0,0,230.3,427.05Z" transform="translate(-50.11 -101.93)"/><path class="cls-4" d="M259.12,437c-.05.11-.17.13-.38.05q-1.17-.44-3.48-1.53c-1.53-.72-2.7-1.23-3.49-1.53a7.73,7.73,0,0,0-1.79-.54c-.45,0-.83.46-1.13,1.28-.37,1-.33,1.64.12,2a5.11,5.11,0,0,0,.92.43q1.08.4,3.27,1.08c1.46.46,2.55.82,3.26,1.09.35.13.18,1.11-.5,2.94a12.44,12.44,0,0,1-1.21,2.71.46.46,0,0,1-.53.13,6.2,6.2,0,0,0-.94-.48c-1.08-.52-2.74-1.2-5-2L247,442.1c-.56-.11-.91,0-1.05.38q-.82,2.22-1.72,5.17c-.54,1.78-.78,2.57-.71,2.39-.1.27-.48.3-1.16.1a9.15,9.15,0,0,0-1.38-.54,22.71,22.71,0,0,1-3.69-1.6.54.54,0,0,1-.27-.66q.64-1.72,2.06-5.16c.94-2.28,1.63-4,2.06-5.16.51-1.37,1.1-3.13,1.75-5.25,1-3.29,1.56-5,1.64-5.3l.05-.19c.09-.26.29-.33.61-.21.77.28,1.93.73,3.48,1.34s2.7,1.07,3.48,1.36,2.11.71,3.83,1.21,3,.9,3.82,1.22c.52.19.73.51.64,1s-.4,1.13-.69,2c-.07.23-.17.7-.3,1.4A8.69,8.69,0,0,1,259.12,437Z" transform="translate(-50.11 -101.93)"/><path class="cls-4" d="M276.5,440.7c-.05.21-.19.29-.43.24q-.61-.15-4.83-1.39c-.7,2.72-1.18,4.63-1.43,5.71q-.45,1.92-1.19,5.79c-.5,2.59-.89,4.52-1.19,5.8q-.07.3-.24.36a2.53,2.53,0,0,1-.47,0,22,22,0,0,1-2.89-.54,22.6,22.6,0,0,1-2.91-.81.49.49,0,0,1-.33-.61q.45-1.92,1.5-5.71c.71-2.52,1.21-4.43,1.5-5.7q.3-1.28,1.19-5.68-3.31-.44-5.25-.88c-.17,0-.24-.12-.22-.23a9.55,9.55,0,0,1,.52-1.19c.35-.72.55-1.16.61-1.31.15-.5.31-1,.47-1.5.27-.8.49-1.17.68-1.13l.22.07a66.09,66.09,0,0,0,7.69,2.16c1,.22,2.79.54,5.46.95l2.16.33a.85.85,0,0,1,.37.13.71.71,0,0,1,0,.33c-.07.29-.18.7-.32,1.21s-.26,1-.32,1.21a10.13,10.13,0,0,0-.17,1.22A9.68,9.68,0,0,1,276.5,440.7Z" transform="translate(-50.11 -101.93)"/><path class="cls-4" d="M287.9,452.65a7.36,7.36,0,0,1-3.52,5.42,12.16,12.16,0,0,1-6.36,2h-.22c-.25,0-.72-.87-1.4-2.53a10,10,0,0,1-1-3c0-.12.11-.19.28-.2a17.24,17.24,0,0,0,3.28-.55,2.73,2.73,0,0,0,2-2.34,3.87,3.87,0,0,0-.84-2.53c-1.12-1.66-1.72-2.57-1.81-2.75a6.74,6.74,0,0,1-.69-3.95,6,6,0,0,1,3.4-4.69A12.74,12.74,0,0,1,287,436l.28,0c.17,0,.28.17.35.45a47.5,47.5,0,0,0,1.48,4.6.74.74,0,0,1,0,.18.26.26,0,0,1-.33.24,2.68,2.68,0,0,1-.44-.1,3,3,0,0,0-.48-.11,3.93,3.93,0,0,0-2.15.3,2,2,0,0,0-1.29,1.62,4.34,4.34,0,0,0,.9,2.62c1.19,1.94,1.81,3,1.86,3.05A6.62,6.62,0,0,1,287.9,452.65Z" transform="translate(-50.11 -101.93)"/><path class="cls-4" d="M322.18,458.91c0,.5-.23.77-.8.81q-.53,0-1.59.15l-1.61.16q-2,.14-5-2.78c-.53.58-1.37,1.41-2.54,2.48a7.67,7.67,0,0,1-4.37,1.56A5.17,5.17,0,0,1,302,459.7a6.69,6.69,0,0,1-1.74-4.34,6.77,6.77,0,0,1,1.36-4.78,22.35,22.35,0,0,1,3.82-3.29,11.65,11.65,0,0,1-1.29-4,6.11,6.11,0,0,1,1.29-4.54,5.81,5.81,0,0,1,4.28-1.94,5.36,5.36,0,0,1,3.87,1.05,4.92,4.92,0,0,1,1.66,3.65,4.51,4.51,0,0,1-1,3.07A9.2,9.2,0,0,1,312.9,446c-.76.64-1.23,1-1.41,1.21.3.38.76.93,1.38,1.66.34.35.83.87,1.47,1.57a12.52,12.52,0,0,1,2.17-2.54,5.3,5.3,0,0,1,3.1-1.17,3.64,3.64,0,0,1,1.19,0c.25.1.39.43.43,1a12.72,12.72,0,0,1-.07,3c-.05.27-.32.47-.8.61a7.76,7.76,0,0,0-1.55.55,4,4,0,0,0-1.65,1.78,3.73,3.73,0,0,0,3.57,1.46c.79,0,1.2.08,1.22.38ZM311,454.39a13.48,13.48,0,0,1-1.79-1.82c-1-1.23-1.58-1.87-1.64-1.93a4.74,4.74,0,0,0-1.56,1.64,3.66,3.66,0,0,0-.62,2.16,2.56,2.56,0,0,0,.74,1.72,2.11,2.11,0,0,0,1.74.62,3.52,3.52,0,0,0,1.91-.78A3.18,3.18,0,0,0,311,454.39Zm.92-13.07c-.07-1-.72-1.52-1.94-1.44a2.28,2.28,0,0,0-1.48.63A1.74,1.74,0,0,0,308,442a4.47,4.47,0,0,0,1.23,2.73C311.06,443.49,312,442.36,311.9,441.32Z" transform="translate(-50.11 -101.93)"/><path class="cls-4" d="M344.87,446.71a7.37,7.37,0,0,1-1.31,6.33,12.16,12.16,0,0,1-5.21,4.15l-.2.07c-.25.07-1-.55-2.23-1.84a9.79,9.79,0,0,1-2-2.44c0-.11,0-.21.18-.28A17.25,17.25,0,0,0,337,451a2.75,2.75,0,0,0,1-2.92,3.92,3.92,0,0,0-1.7-2.05c-1.65-1.14-2.55-1.77-2.7-1.9a6.82,6.82,0,0,1-2.07-3.42,6,6,0,0,1,1.46-5.61,12.66,12.66,0,0,1,4.92-3.52l.27-.08c.16,0,.32.05.49.28a47.12,47.12,0,0,0,3.05,3.76.3.3,0,0,1,.09.15c.05.18,0,.3-.22.35l-.45.06a3.16,3.16,0,0,0-.48.07,3.92,3.92,0,0,0-1.89,1.06,2,2,0,0,0-.61,2,4.38,4.38,0,0,0,1.79,2.12l2.85,2.15A6.78,6.78,0,0,1,344.87,446.71Z" transform="translate(-50.11 -101.93)"/><path class="cls-4" d="M359.64,430a.31.31,0,0,1-.23.44c-.39.15-2,.67-4.77,1.55.93,2.65,1.6,4.5,2,5.54.47,1.22,1.22,3.05,2.25,5.47s1.79,4.25,2.25,5.47c.08.2.08.34,0,.43a2.6,2.6,0,0,1-.41.24,32.88,32.88,0,0,1-5.56,2.12.49.49,0,0,1-.62-.32c-.46-1.23-1.11-3.08-1.94-5.57s-1.47-4.35-1.94-5.57q-.46-1.21-2.19-5.38-3,1.5-4.85,2.21c-.16.06-.26,0-.3-.07a8.41,8.41,0,0,1-.24-1.28c-.11-.79-.19-1.26-.23-1.43-.15-.5-.3-1-.44-1.5-.23-.81-.25-1.25-.07-1.31l.22-.07a67.5,67.5,0,0,0,7.58-2.51c.94-.36,2.62-1.11,5.06-2.26l2-.94c.21-.07.33-.11.38-.09s.1.1.17.28.25.67.42,1.18.32.95.41,1.18a10.44,10.44,0,0,0,.54,1.1C359.36,429.43,359.54,429.79,359.64,430Z" transform="translate(-50.11 -101.93)"/><path class="cls-4" d="M384.26,424.08a12.2,12.2,0,0,1,1.39,9.22,12,12,0,0,1-14.92,8.37,12.12,12.12,0,0,1-7.17-5.92,12.24,12.24,0,0,1-1.37-9.23,11.88,11.88,0,0,1,14.88-8.38A12.21,12.21,0,0,1,384.26,424.08Zm-5.51,3.07a6.28,6.28,0,0,0-3.41-2.95,5.24,5.24,0,0,0-7,4,6.61,6.61,0,0,0,4.06,7.42,5.19,5.19,0,0,0,4.43-.45,5.11,5.11,0,0,0,2.56-3.6A6.2,6.2,0,0,0,378.75,427.15Z" transform="translate(-50.11 -101.93)"/><path class="cls-4" d="M409.3,418.85c.05.06,0,.17-.16.34a27.94,27.94,0,0,1-2.42,2.06,27.22,27.22,0,0,1-2.38,1.77,2,2,0,0,1-.38.2.87.87,0,0,1-.39-.12l-1.78-1.05q-1.55-.9-4.65-2.57a1.45,1.45,0,0,0-1.53.3c.27-.19-.17.17-1.32,1.1-.13.1,0,.37.33.82s1.23,1.42,2.28,2.51,1.8,1.92,2.27,2.51q.18.22.09.36l-.34.31c-.49.45-1.27,1.1-2.36,2a21.59,21.59,0,0,1-2.3,1.71.52.52,0,0,1-.7-.1c-.76-1-1.86-2.43-3.31-4.43s-2.56-3.49-3.33-4.45q-4.4-5.5-7.11-8.39l-.16-.18c-.12-.14-.07-.35.18-.62s1.52-1.39,3.85-3.34c1.58-1.31,2.84-2.35,3.8-3.11a10.32,10.32,0,0,1,5.91-2.53,6.42,6.42,0,0,1,5.61,2.66,9.11,9.11,0,0,1,1.87,3.47,8,8,0,0,1-.26,3.82.73.73,0,0,0,0,.63s1.4.65,4.2,2A29.44,29.44,0,0,1,409.3,418.85Zm-14.79-7.31a3,3,0,0,0-2.8-1.37,6.57,6.57,0,0,0-2.9,1.54c-.83.66-1.16,1.14-1,1.43a30.81,30.81,0,0,0,2,2.62l.72.87.71.86c0,.05.21,0,.52-.2a14.56,14.56,0,0,0,1.76-1.21C395.36,414.56,395.71,413,394.51,411.54Z" transform="translate(-50.11 -101.93)"/><path class="cls-4" d="M420.14,400.25a20.71,20.71,0,0,1,1.72,2,10.53,10.53,0,0,1,1.44,2.09.63.63,0,0,1-.15.62l-.38.33q-1,.76-5,5l-2.64,2.76c-1.17,1.22-2,2.13-2.62,2.75-.25.26-.5.29-.73.06-.9-.85-2.21-2.19-3.93-4s-3-3.15-3.93-4-2.67-2.44-5.28-4.72c-.66-.59-1.67-1.46-3-2.61l-.18-.14q-.3-.24,0-.57c.57-.6,1.43-1.48,2.6-2.65s2-2,2.6-2.64,1.38-1.49,2.47-2.71,1.91-2.12,2.47-2.71c.4-.42.78-.51,1.16-.28.22.14.85.61,1.87,1.41s1.63,1.31,1.83,1.5a.3.3,0,0,1,0,.48,3.15,3.15,0,0,1-.25.24q-3.32,3-5.74,5.53c-.41.43-.55.79-.44,1.08a5.62,5.62,0,0,0,.87.94,2.38,2.38,0,0,0,1.32.79,1.4,1.4,0,0,0,1-.57c.08-.08.22-.24.43-.49s.39-.45.54-.6c1-1,1.9-2.07,2.83-3.16l.57-.73c.23-.3.42-.53.57-.7a.34.34,0,0,1,.55,0c-.17-.16.38.49,1.65,2,.58.67,1.2,1.32,1.84,1.93.16.15.13.34-.09.58l-1.15,1c-.48.42-1.5,1.44-3.05,3.08l-1.21,1.28c-.32.33-.42.6-.31.81,0,.05.28.29.74.72a4.92,4.92,0,0,0,1.3,1c.43.15,1.1-.2,2-1l1.67-1.76c.4-.43,1-1.1,1.69-2s1.28-1.58,1.68-2C419.62,399.92,419.85,400,420.14,400.25Z" transform="translate(-50.11 -101.93)"/><path class="cls-4" d="M206.85,191.83a1.24,1.24,0,0,1,.25.74,10.1,10.1,0,0,1-3.15,8.36,10.85,10.85,0,0,1-8.45,3.48,12.28,12.28,0,0,1-8.37-3.87,12.57,12.57,0,0,1-3.93-8.24,10.36,10.36,0,0,1,3.13-8.41,11,11,0,0,1,8.32-3.68,1,1,0,0,1,.69.23,10.07,10.07,0,0,1,.86,2.47,14.27,14.27,0,0,1,.59,2.65.49.49,0,0,1-.14.33,5,5,0,0,1-1.06.12,8.73,8.73,0,0,0-2.13.37,6,6,0,0,0-2.4,1.47,4.79,4.79,0,0,0-1.46,4.07,6.63,6.63,0,0,0,2,3.92,6.69,6.69,0,0,0,4,2,4.72,4.72,0,0,0,4.08-1.46,6.26,6.26,0,0,0,1.49-2.4,8.58,8.58,0,0,0,.39-2,4.39,4.39,0,0,1,.13-1,.49.49,0,0,1,.36-.11c.27,0,1.1.16,2.5.44A12.08,12.08,0,0,1,206.85,191.83Z" transform="translate(-50.11 -101.93)"/><path class="cls-4" d="M226.15,181.87c0,.06,0,.17-.17.33a27.19,27.19,0,0,1-2.49,2,28.92,28.92,0,0,1-2.43,1.69,1.59,1.59,0,0,1-.39.18.7.7,0,0,1-.38-.12l-1.75-1.12c-1-.63-2.53-1.53-4.57-2.72a1.46,1.46,0,0,0-1.53.25c.28-.18-.17.17-1.36,1.06-.13.1,0,.37.31.83s1.18,1.46,2.19,2.58,1.74,2,2.19,2.59c.11.15.14.27.08.36l-.36.3c-.49.43-1.3,1.06-2.41,1.89a22.31,22.31,0,0,1-2.36,1.63.52.52,0,0,1-.7-.12q-1.1-1.47-3.16-4.54c-1.38-2.05-2.44-3.56-3.18-4.55q-4.22-5.65-6.83-8.63l-.15-.17c-.13-.15-.06-.35.19-.62s1.57-1.34,4-3.21q2.43-1.89,3.9-3a10.38,10.38,0,0,1,6-2.33,6.45,6.45,0,0,1,5.52,2.85,9.06,9.06,0,0,1,1.76,3.53,8,8,0,0,1-.39,3.8.72.72,0,0,0,0,.63s1.37.7,4.13,2.14A30.34,30.34,0,0,1,226.15,181.87Zm-14.54-7.79a3,3,0,0,0-2.76-1.46,6.64,6.64,0,0,0-2.95,1.45c-.84.63-1.2,1.1-1.06,1.39a28.9,28.9,0,0,0,1.88,2.68q.22.31.69.9l.68.88c0,.05.21,0,.53-.18a14.3,14.3,0,0,0,1.79-1.16Q213.34,176.4,211.61,174.08Z" transform="translate(-50.11 -101.93)"/><path class="cls-4" d="M246.38,170.88c.1.18,0,.37-.17.57a19.94,19.94,0,0,1-2.68,1.55,21,21,0,0,1-2.78,1.31.88.88,0,0,1-1-.33q-1.62-1.86-2-1.86a37.68,37.68,0,0,0-4,2,12.86,12.86,0,0,0-2.59,1.53,4.46,4.46,0,0,0,.26,1.87c.25.92.25,1.48,0,1.69a28.09,28.09,0,0,1-3.3,1.88c-1.5.79-2.33,1.05-2.48.76s-.67-4-1.62-11.18q-1.51-11.67-1.72-12.81c-.08-.43,0-.69.11-.78s.69-.33,1.27-.57,1-.44,1.29-.58.65-.36,1.14-.67.88-.52,1.14-.66.44,0,.77.22q1.53,1.17,9.8,8.4T246.38,170.88Zm-17.52-7.94c0,.54.17,1.66.44,3.37a17,17,0,0,0,.62,3.12c.09.17.44.12,1-.17.31-.14.82-.4,1.52-.76s1-.61,1-.81a.49.49,0,0,0-.08-.22,16.06,16.06,0,0,0-2.09-2.33A23,23,0,0,0,228.86,162.94Z" transform="translate(-50.11 -101.93)"/><path class="cls-4" d="M257.85,148.55c0,.11-.05.21-.26.28-.78.28-2,.62-3.65,1s-2.87.77-3.67,1a7.89,7.89,0,0,0-1.72.72c-.33.31-.35.89-.06,1.71q.52,1.5,1.35,1.44a4.4,4.4,0,0,0,1-.25c.72-.26,1.79-.67,3.21-1.25s2.48-1,3.2-1.25c.35-.12.84.74,1.49,2.59a12.38,12.38,0,0,1,.8,2.86.44.44,0,0,1-.33.43,5.32,5.32,0,0,0-1,.24q-1.74.42-5.15,1.61l-1.24.45c-.51.27-.7.59-.57.95q.78,2.24,2,5.09c.71,1.71,1,2.47,1,2.29.1.27-.18.54-.82.81.17-.07-.3.09-1.41.47a21.8,21.8,0,0,1-3.86,1.12.53.53,0,0,1-.63-.33q-.6-1.76-1.71-5.29c-.73-2.36-1.3-4.13-1.7-5.29-.49-1.39-1.15-3.1-2-5.16-1.31-3.18-2-4.88-2.11-5.12l-.09-.18c-.1-.26,0-.45.34-.56l3.53-1.18c1.58-.51,2.77-.9,3.55-1.18s2.08-.79,3.72-1.5,2.88-1.22,3.72-1.51c.53-.18.89-.07,1.11.34s.41,1.12.77,2c.1.22.32.65.67,1.27A8.8,8.8,0,0,1,257.85,148.55Z" transform="translate(-50.11 -101.93)"/><path class="cls-4" d="M277.16,144.07c0,.22-.06.35-.29.4-.42.09-2.07.35-5,.78q.77,4.14,1.1,5.78.4,1.92,1.36,5.76t1.36,5.76c0,.2,0,.34-.07.42a1.6,1.6,0,0,1-.44.17,21.9,21.9,0,0,1-2.84.73,23.27,23.27,0,0,1-3,.48.47.47,0,0,1-.56-.41q-.4-1.92-1-5.81c-.42-2.58-.77-4.52-1-5.8-.17-.85-.61-2.74-1.31-5.65-2.13.67-3.84,1.13-5.13,1.4-.18,0-.27,0-.3-.11a9.31,9.31,0,0,1,0-1.3c0-.8,0-1.28,0-1.45-.08-.52-.15-1-.21-1.56-.09-.83,0-1.26.14-1.3l.23,0a67,67,0,0,0,7.89-1.28q1.47-.3,5.35-1.44l2.1-.6a.88.88,0,0,1,.39,0,.62.62,0,0,1,.12.3c.07.3.14.71.23,1.23s.17,1,.22,1.24a10.49,10.49,0,0,0,.35,1.17A10.12,10.12,0,0,1,277.16,144.07Z" transform="translate(-50.11 -101.93)"/><path class="cls-4" d="M292.65,153.29a7.39,7.39,0,0,1-2.3,6,12.21,12.21,0,0,1-5.8,3.28l-.22,0c-.25,0-.89-.7-1.91-2.17a9.92,9.92,0,0,1-1.57-2.72c0-.12.06-.21.22-.26a16.78,16.78,0,0,0,3.1-1.23,2.75,2.75,0,0,0,1.49-2.71,3.91,3.91,0,0,0-1.36-2.3c-1.44-1.38-2.23-2.15-2.35-2.31a6.86,6.86,0,0,1-1.51-3.71,6,6,0,0,1,2.34-5.3,12.51,12.51,0,0,1,5.42-2.68l.28-.05c.16,0,.31.11.43.36.37.78,1.17,2.18,2.42,4.19a.56.56,0,0,1,.07.17.27.27,0,0,1-.28.31h-.45a2.69,2.69,0,0,0-.48,0,4,4,0,0,0-2,.75,2,2,0,0,0-.92,1.86,4.4,4.4,0,0,0,1.43,2.37l2.47,2.58A6.78,6.78,0,0,1,292.65,153.29Z" transform="translate(-50.11 -101.93)"/><path class="cls-4" d="M324.87,161.77c-.05.5-.36.72-.92.66l-1.6-.1c-.71,0-1.25-.07-1.61-.1q-2-.19-4.45-3.54c-.62.49-1.59,1.17-2.91,2.05a7.81,7.81,0,0,1-4.56.84,5.19,5.19,0,0,1-4-2.26,6.65,6.65,0,0,1-1-4.56,6.73,6.73,0,0,1,2.1-4.51,23.15,23.15,0,0,1,4.3-2.63,11.74,11.74,0,0,1-.64-4.15,6.15,6.15,0,0,1,2-4.28,5.83,5.83,0,0,1,4.54-1.22,5.33,5.33,0,0,1,3.66,1.65,5,5,0,0,1,1,3.87,4.5,4.5,0,0,1-1.48,2.87,8.93,8.93,0,0,1-1.53,1.13c-.85.51-1.38.83-1.58,1,.23.42.59,1,1.1,1.86.27.39.67,1,1.2,1.79a11.84,11.84,0,0,1,2.55-2.17,5.36,5.36,0,0,1,3.24-.66,4,4,0,0,1,1.17.21c.23.14.32.49.27,1a12.1,12.1,0,0,1-.55,2.91c-.09.26-.38.41-.88.47a7.79,7.79,0,0,0-1.62.3,4.07,4.07,0,0,0-1.91,1.49,3.75,3.75,0,0,0,3.29,2c.79.07,1.18.26,1.15.56Zm-10.34-6.26a12.77,12.77,0,0,1-1.47-2.08l-1.32-2.17a4.68,4.68,0,0,0-1.8,1.37,3.67,3.67,0,0,0-.95,2,2.53,2.53,0,0,0,.44,1.81,2.12,2.12,0,0,0,1.63.89,3.48,3.48,0,0,0,2-.46A3.21,3.21,0,0,0,314.53,155.51Zm3-12.75c.1-1-.46-1.62-1.68-1.73a2.25,2.25,0,0,0-1.56.38,1.8,1.8,0,0,0-.76,1.35,4.52,4.52,0,0,0,.78,2.89Q317.38,144.32,317.52,142.76Z" transform="translate(-50.11 -101.93)"/><path class="cls-4" d="M347.62,160.78a7.34,7.34,0,0,1-4.37,4.75,12.12,12.12,0,0,1-6.6.89l-.21,0c-.25-.08-.57-1-1-2.73a10.49,10.49,0,0,1-.46-3.11c0-.12.14-.17.31-.16a16.86,16.86,0,0,0,3.33,0,2.76,2.76,0,0,0,2.39-2,4,4,0,0,0-.4-2.64c-.84-1.82-1.28-2.82-1.34-3a6.74,6.74,0,0,1,0-4,6,6,0,0,1,4.13-4.07,12.71,12.71,0,0,1,6-.48l.28.07c.16,0,.25.21.27.49.05.86.28,2.46.69,4.79a.48.48,0,0,1,0,.17.26.26,0,0,1-.37.19,2.78,2.78,0,0,1-.41-.17,3,3,0,0,0-.45-.19,3.93,3.93,0,0,0-2.17-.06,2,2,0,0,0-1.54,1.38,4.42,4.42,0,0,0,.44,2.74c.86,2.1,1.3,3.21,1.34,3.31A6.74,6.74,0,0,1,347.62,160.78Z" transform="translate(-50.11 -101.93)"/><path class="cls-4" d="M369.53,158.2c-.08.21-.24.26-.46.17-.39-.17-1.9-.89-4.53-2.18q-1.73,3.85-2.37,5.38-.76,1.81-2.15,5.52c-.93,2.46-1.64,4.3-2.15,5.51-.08.19-.18.3-.29.31a2.18,2.18,0,0,1-.47-.1,25.71,25.71,0,0,1-2.75-1,23.39,23.39,0,0,1-2.73-1.29.5.5,0,0,1-.23-.66c.51-1.21,1.33-3,2.44-5.37s1.94-4.16,2.45-5.37q.49-1.2,2.12-5.4c-2.13-.65-3.81-1.24-5-1.75-.16-.07-.22-.16-.18-.26a10.8,10.8,0,0,1,.72-1.09c.46-.65.74-1,.82-1.19.24-.47.47-.93.72-1.4.39-.74.68-1.07.85-1l.21.1a68.35,68.35,0,0,0,7.22,3.42q1.38.59,5.22,1.85l2.08.7a1,1,0,0,1,.33.18.63.63,0,0,1-.06.33c-.12.28-.29.66-.52,1.14s-.42.91-.51,1.14a10.12,10.12,0,0,0-.38,1.17A8.27,8.27,0,0,1,369.53,158.2Z" transform="translate(-50.11 -101.93)"/><path class="cls-4" d="M389.21,177.48a12.2,12.2,0,0,1-7.38,5.69,12,12,0,0,1-14.57-9,13,13,0,0,1,9.1-14.83,11.91,11.91,0,0,1,14.56,8.93A12.25,12.25,0,0,1,389.21,177.48Zm-5.36-3.33a6.29,6.29,0,0,0,.93-4.42,5.27,5.27,0,0,0-6.88-4.14,6.6,6.6,0,0,0-4.51,7.17,5.37,5.37,0,0,0,6.94,4.14A6.23,6.23,0,0,0,383.85,174.15Z" transform="translate(-50.11 -101.93)"/><path class="cls-4" d="M399.41,201.42q-.07.09-.36-.09c-.36-.23-1.18-.9-2.47-2a29.5,29.5,0,0,1-2.17-2,1.27,1.27,0,0,1-.26-.34.67.67,0,0,1,0-.4c.15-.44.39-1.08.71-1.94.4-1.12,1-2.81,1.68-5.05a1.46,1.46,0,0,0-.58-1.44c.24.23-.2-.13-1.31-1.1q-.19-.17-.75.48c-.49.57-1.18,1.46-2.06,2.69s-1.56,2.12-2.05,2.69c-.13.14-.24.2-.34.16l-.37-.28c-.52-.4-1.31-1.05-2.36-2a22.42,22.42,0,0,1-2.1-1.95.52.52,0,0,1,0-.71q1.2-1.38,3.76-4.07t3.76-4.08q4.62-5.33,7-8.51l.14-.19c.12-.15.33-.13.65,0s1.64,1.25,4,3.18c1.58,1.32,2.83,2.37,3.75,3.17a10.38,10.38,0,0,1,3.57,5.36,6.41,6.41,0,0,1-1.61,6,9,9,0,0,1-3.07,2.48,7.86,7.86,0,0,1-3.79.44.72.72,0,0,0-.62.12s-.39,1.49-1.2,4.5A30.25,30.25,0,0,1,399.41,201.42Zm4.5-15.88a3,3,0,0,0,.84-3A6.79,6.79,0,0,0,402.7,180c-.8-.69-1.33-.94-1.59-.74a27,27,0,0,0-2.22,2.41l-.73.86c-.31.39-.55.67-.71.86,0,0,.06.2.29.47a15.37,15.37,0,0,0,1.51,1.51Q402,187.73,403.91,185.54Z" transform="translate(-50.11 -101.93)"/><path class="cls-4" d="M415.07,211.92a21.51,21.51,0,0,1-2.18,1.51,10.11,10.11,0,0,1-2.22,1.23.63.63,0,0,1-.6-.21c-.06-.08-.16-.21-.29-.41q-.67-1-4.53-5.47c-.56-.64-1.39-1.6-2.49-2.89l-2.48-2.87c-.24-.28-.24-.52,0-.73q1.41-1.23,4.37-3.53T409,195q1.43-1.25,5.21-4.8c.65-.6,1.61-1.52,2.89-2.75l.16-.16c.18-.19.37-.17.56.06.54.62,1.34,1.57,2.38,2.84s1.85,2.22,2.39,2.84,1.35,1.52,2.45,2.73,1.93,2.11,2.46,2.72c.38.43.43.83.16,1.18s-.68.78-1.58,1.72-1.46,1.5-1.66,1.68a.31.31,0,0,1-.49,0l-.21-.27q-2.64-3.58-4.95-6.25c-.39-.44-.73-.63-1-.54a4.74,4.74,0,0,0-1,.77c-.57.5-.88.91-.91,1.24a1.43,1.43,0,0,0,.47,1l.44.47c.23.23.41.43.55.59.92,1.05,1.87,2.1,2.87,3.13l.67.63c.28.26.49.47.64.64a.35.35,0,0,1,0,.55c.18-.15-.53.33-2.12,1.45a23.8,23.8,0,0,0-2.1,1.65q-.25.21-.57-.15l-.86-1.24q-.54-.78-2.76-3.34l-1.16-1.33c-.3-.34-.56-.47-.78-.38,0,0-.31.25-.79.66a5,5,0,0,0-1.12,1.2c-.2.42.08,1.12.83,2.1l1.6,1.84c.38.44,1,1.07,1.84,1.87s1.45,1.43,1.83,1.87C415.44,211.43,415.37,211.65,415.07,211.92Z" transform="translate(-50.11 -101.93)"/><path class="cls-5" d="M531.76,295l19.55-59H410.42C388.6,198,347.36,171.68,300,171.68S211.47,198,189.65,236H50.11l19.56,57.37L50.11,354h135.4c20.44,41,64,72.17,114.52,72.17S394.11,395,414.56,354H551.31Z" transform="translate(-50.11 -101.93)"/><path class="cls-6" d="M117,294.89l.19-6.63a9.87,9.87,0,0,0-.57-4,2.48,2.48,0,0,0-2.38-1.25c-1,0-1.49-.27-1.49-.7s.29-.68.88-.68,1.69,0,3,.1l3,.12q3.72,0,6.51-.17l.74,0c.55,0,.83.21.83.62s-.31.68-.94.7a4.5,4.5,0,0,0-2.17.41,2.08,2.08,0,0,0-.9,1.22,38.18,38.18,0,0,0-.41,5.77q-.15,5-.15,6.82c0,5.14,0,8.28.1,9.44A3.58,3.58,0,0,0,124,309a3.25,3.25,0,0,0,2.35.68c.68,0,1,.22,1,.66s-.27.57-.79.57c-.18,0-.55,0-1.14-.07l-6-.22q-.56,0-2.1.09c-2,.13-3.26.2-3.84.2s-.79-.22-.79-.64.22-.57.65-.57a3.84,3.84,0,0,0,2.29-.54,4.07,4.07,0,0,0,1-2.52,58.69,58.69,0,0,0,.33-7.85c0-.41,0-1-.05-1.84q-3.83-.11-6.77-.11a52.74,52.74,0,0,0-5.36.22c-.16,2.93-.24,5.59-.24,8a7.81,7.81,0,0,0,.55,3.52,2.62,2.62,0,0,0,2.33,1.08c.57,0,.86.24.86.63s-.3.61-.9.61c-.22,0-.54,0-1-.06-1.73-.16-3.55-.24-5.45-.24-.89,0-2.08,0-3.57.11-1,.07-1.73.1-2,.1-.76,0-1.13-.21-1.13-.65s.29-.56.89-.64a4.08,4.08,0,0,0,2.29-.72,3.71,3.71,0,0,0,.89-2.06,69.93,69.93,0,0,0,.35-8.67q.06-7.14.06-7.8a34,34,0,0,0-.23-4.68,3.37,3.37,0,0,0-.78-2,3,3,0,0,0-1.68-.63,4.33,4.33,0,0,1-1.09-.25c-.15-.08-.22-.25-.22-.52,0-.44.24-.65.74-.65s1.69.06,3.18.17q1.24.09,2.82.09l6.18-.22c.71,0,1.07.23,1.07.68s-.29.65-.87.65a4,4,0,0,0-2,.35,2.2,2.2,0,0,0-.81,1.39,19,19,0,0,0-.26,4l0,6.22a58.79,58.79,0,0,0,6,.29Q114,295.18,117,294.89Z" transform="translate(-50.11 -101.93)"/><path class="cls-6" d="M143.6,280.9h1.49q2.9,6.25,8.15,19.68a51,51,0,0,0,3.35,7.48,4.09,4.09,0,0,0,2.91,1.6c.43,0,.65.24.65.56s-.28.68-.85.68c-.31,0-1.1,0-2.38-.15-1.52-.13-2.8-.2-3.83-.2s-2.32.06-3.94.18c-1.21.08-2,.13-2.38.13-.67,0-1-.21-1-.64s.24-.5.7-.54c1.8-.16,2.69-.87,2.69-2.12a12.5,12.5,0,0,0-.78-3.22,39.44,39.44,0,0,0-1.68-4.26l-2.22,0q-4.4,0-6.86,0c-1.26,3.44-1.88,5.72-1.88,6.83a2.13,2.13,0,0,0,.94,1.86,4.17,4.17,0,0,0,2,.78c.55.05.83.28.83.67s-.3.59-.89.59c-.24,0-.85,0-1.84-.1-1.29-.11-2.22-.16-2.8-.16a22.86,22.86,0,0,0-3.28.22,4.65,4.65,0,0,1-.66.07q-.81,0-.81-.66a.63.63,0,0,1,.53-.63,6.56,6.56,0,0,0,2.05-.92,6.46,6.46,0,0,0,1.61-2.09,33.87,33.87,0,0,0,2.07-5Q138.23,293.93,143.6,280.9Zm-1.54,7.63-3.8,9.78,7.73-.11c-.41-1.15-1-2.72-1.88-4.71C143.19,291.34,142.51,289.68,142.06,288.53Z" transform="translate(-50.11 -101.93)"/><path class="cls-6" d="M170.39,281.66q10.47,11.93,17.47,19.12c0-1,0-1.63,0-1.93l0-8.64a18.74,18.74,0,0,0-.35-4.38,3.55,3.55,0,0,0-1.48-2.09,5.55,5.55,0,0,0-2.65-.9c-.54,0-.81-.28-.81-.67s.25-.64.74-.64a10.15,10.15,0,0,1,1.08.08,33.41,33.41,0,0,0,3.65.14c2,0,3.54-.05,4.59-.16.44,0,.81-.06,1.12-.06.55,0,.83.21.83.64s-.37.65-1.12.72a4.55,4.55,0,0,0-2.57,1.16c-.79.68-1.19,2-1.19,4l.11,12.37-.15,9.3c0,.81-.25,1.21-.75,1.21a1.2,1.2,0,0,1-.46-.13q-.26-.13-3-3t-8.16-9q-5.42-6.09-7.6-8.74c0,.4,0,4.06,0,11a36.26,36.26,0,0,0,.27,5,3.44,3.44,0,0,0,1.71,2.65,5.25,5.25,0,0,0,2.59.82c.49,0,.74.19.74.57s-.26.65-.79.65a10.84,10.84,0,0,1-1.26-.08,25.51,25.51,0,0,0-3.35-.18,39.73,39.73,0,0,0-4.72.2c-.62.07-1,.11-1.32.11-.56,0-.85-.24-.85-.72s.46-.56,1.38-.64c1.65-.13,2.68-.7,3.09-1.7a10.94,10.94,0,0,0,.63-4.11q0-11.29-.12-13.8a8.33,8.33,0,0,0-1.58-4.55,5.56,5.56,0,0,0-3.51-2.43c-.57-.1-.85-.33-.85-.68s.3-.72.9-.72l.63,0c.34,0,.94.05,1.82.05C167,281.6,168.76,281.62,170.39,281.66Z" transform="translate(-50.11 -101.93)"/><path class="cls-6" d="M213.47,311q-1,0-7.9-.13l-4.81,0-2.82,0a3.88,3.88,0,0,1-1.26-.12c-.17-.08-.25-.26-.25-.54s.31-.63.94-.63A4.48,4.48,0,0,0,200,309a3.19,3.19,0,0,0,1-2.26q.22-1.64.41-6.54c.12-3.27.19-6.28.19-9,0-3.86-.19-6.24-.56-7.12s-1.3-1.36-2.77-1.44c-.52,0-.79-.26-.79-.65s.24-.59.7-.59q.42,0,2.82.24,2.67.24,3.72.24l8.29-.18a20.72,20.72,0,0,1,8,1.59,12.89,12.89,0,0,1,6.12,5.19,15.75,15.75,0,0,1,.94,14.44,13,13,0,0,1-3.84,4.91,13.47,13.47,0,0,1-5,2.62A23.67,23.67,0,0,1,213.47,311ZM212,309.44a9,9,0,0,0,7.26-3.22q2.67-3.23,2.67-9.19A16.46,16.46,0,0,0,219,287a9.52,9.52,0,0,0-8.17-3.93,6.13,6.13,0,0,0-2.17.21,1,1,0,0,0-.45.42c-.06.15-.15,1.78-.26,4.9l-.27,7.42q-.06,2.74-.06,6.79a22.59,22.59,0,0,0,.26,4.19,2.82,2.82,0,0,0,1.16,1.77A5.19,5.19,0,0,0,212,309.44Z" transform="translate(-50.11 -101.93)"/><path class="cls-6" d="M385.41,281.77q.57,1.37,2.1,4.3t3,6q1.5,3,3.39,6.37c1,1.77,1.57,2.8,1.7,3.11q5.49-12.27,8.3-19.75c3.5,0,6.73-.08,9.69-.26l.61,0c.6,0,.9.23.9.7s-.23.61-.7.61c-1.66,0-2.75.57-3.27,1.7s-.78,3.88-.78,8.25l0,10.72a8.93,8.93,0,0,0,.86,4.59,3.3,3.3,0,0,0,2.82,1.38c.62,0,.94.22.94.63a.65.65,0,0,1-.4.55l-6.13-.05c-1.88,0-4.45.08-7.71.22a.77.77,0,0,1-.42-.61c0-.34.38-.56,1.14-.68a4.06,4.06,0,0,0,1.66-.57,2.32,2.32,0,0,0,.77-1.38,12.74,12.74,0,0,0,.26-2.95l.09-9.79q0-7.5,0-8.64-5.94,13.81-7.36,17.65l-2.2,5.92c-.25.63-.5.94-.75.94s-.57-.38-.94-1.16q-1.59-3.36-11.41-22.24-.11,5.43-.1,14.65c0,3.24.18,5.28.54,6.14s1.39,1.35,3.06,1.5c.56.06.83.26.83.61s-.22.57-.67.57l-.53,0c-1.75-.13-3-.19-3.76-.19a36.53,36.53,0,0,0-4.7.22,3.26,3.26,0,0,1-.46,0c-.51,0-.77-.21-.77-.63a.48.48,0,0,1,.19-.43,3.77,3.77,0,0,1,1-.29,3.82,3.82,0,0,0,2.75-1.51,7.74,7.74,0,0,0,.64-3.66l.11-12.5a44.25,44.25,0,0,0-.22-5.64,3.4,3.4,0,0,0-1.07-2.13,6,6,0,0,0-2.77-1.11c-.49-.1-.72-.34-.72-.72s.26-.62.78-.62l.48,0Q378.44,281.77,385.41,281.77Z" transform="translate(-50.11 -101.93)"/><path class="cls-6" d="M431.36,280.88h1.49q2.88,6.25,8.15,19.68a51.39,51.39,0,0,0,3.34,7.48,4.07,4.07,0,0,0,2.91,1.59q.66.09.66.57c0,.45-.29.68-.85.68-.31,0-1.1-.05-2.39-.15-1.51-.13-2.79-.2-3.83-.2s-2.31.06-3.93.18c-1.21.08-2,.13-2.38.13-.68,0-1-.22-1-.64s.23-.5.7-.54c1.79-.17,2.69-.87,2.69-2.12a12.22,12.22,0,0,0-.79-3.22,38.83,38.83,0,0,0-1.68-4.27l-2.21,0-6.86,0c-1.26,3.45-1.89,5.72-1.89,6.84a2.13,2.13,0,0,0,.94,1.86,4.23,4.23,0,0,0,2,.77c.55.06.83.29.83.68s-.3.59-.9.59c-.23,0-.85,0-1.84-.11-1.28-.1-2.21-.15-2.8-.15a23,23,0,0,0-3.28.22,4.46,4.46,0,0,1-.65.06c-.54,0-.81-.21-.81-.65a.64.64,0,0,1,.52-.64,6.41,6.41,0,0,0,2.06-.91,6.75,6.75,0,0,0,1.61-2.09,36,36,0,0,0,2.07-5Q426,293.91,431.36,280.88Zm-1.55,7.63-3.8,9.77,7.74-.11q-.62-1.71-1.88-4.7Q430.49,290.23,429.81,288.51Z" transform="translate(-50.11 -101.93)"/><path class="cls-6" d="M466.28,311q-1,0-7.9-.13l-4.81,0-2.82,0a3.88,3.88,0,0,1-1.26-.12c-.17-.08-.25-.26-.25-.54s.31-.63.94-.63a4.49,4.49,0,0,0,2.62-.61,3.18,3.18,0,0,0,1.05-2.26c.15-1.09.28-3.28.41-6.54s.19-6.28.19-9q0-5.81-.56-7.12c-.37-.89-1.3-1.36-2.77-1.44-.52,0-.79-.26-.79-.65s.24-.59.7-.59q.42,0,2.82.24,2.67.24,3.72.24l8.29-.18a20.72,20.72,0,0,1,8,1.59,12.89,12.89,0,0,1,6.12,5.19,15,15,0,0,1,2.26,8.15,15.12,15.12,0,0,1-1.32,6.29,13.08,13.08,0,0,1-3.84,4.91,13.47,13.47,0,0,1-5,2.62A24.17,24.17,0,0,1,466.28,311Zm-1.49-1.6a8.94,8.94,0,0,0,7.26-3.21c1.78-2.15,2.67-5.21,2.67-9.2a16.46,16.46,0,0,0-2.88-10,9.54,9.54,0,0,0-8.17-3.92,6.24,6.24,0,0,0-2.17.2,1,1,0,0,0-.45.43c-.06.15-.15,1.78-.26,4.9l-.27,7.42q-.06,2.74-.06,6.79a22.66,22.66,0,0,0,.26,4.19,2.85,2.85,0,0,0,1.16,1.77A5.2,5.2,0,0,0,464.79,309.41Z" transform="translate(-50.11 -101.93)"/><path class="cls-6" d="M510.58,281.88c.47,2.28.92,4.55,1.38,6.83a.56.56,0,0,1-.63.63c-.24,0-.5-.2-.79-.61a13.78,13.78,0,0,0-4.12-4.31,11.21,11.21,0,0,0-5.39-1.05,21.44,21.44,0,0,0-3.81.33,84.66,84.66,0,0,0-.39,8.47c0,.52,0,1.4,0,2.64l1.66,0a7.42,7.42,0,0,0,2.68-.43,3.8,3.8,0,0,0,1.91-1.81,10.67,10.67,0,0,0,.9-1.79c.13-.46.36-.7.68-.7s.61.18.61.53a1.56,1.56,0,0,1,0,.35,65.24,65.24,0,0,0-.27,8.11,8.12,8.12,0,0,0,.17,1.71,1.35,1.35,0,0,1,.05.37c0,.41-.23.61-.7.61-.32,0-.57-.38-.74-1.16a4.8,4.8,0,0,0-2-3.09,9.07,9.07,0,0,0-4.91-1.11c-.08,2.45-.11,4.07-.11,4.84,0,3.32.05,5.3.15,5.92A2.14,2.14,0,0,0,498,308.7a6.65,6.65,0,0,0,3.26.58q8.32,0,11-5.29c.25-.49.51-.74.8-.74s.64.17.64.52a3.89,3.89,0,0,1-.14.9L512.13,311l-7.91,0c-2.23,0-4.32-.06-6.25-.15s-3.44-.13-4.54-.13-3.06.07-5.53.22c-.3,0-.53,0-.68,0-.68,0-1-.22-1-.68s.27-.61.83-.61a3.12,3.12,0,0,0,2.85-1.15c.49-.76.73-2.32.73-4.68l.14-11.26q0-5.76-.15-7.09a2.5,2.5,0,0,0-.75-1.79,5.33,5.33,0,0,0-2.3-.71c-.46-.06-.7-.26-.7-.61s.27-.66.81-.66l5.27.16Z" transform="translate(-50.11 -101.93)"/><path class="cls-7" d="M116.93,354h68.25l-58,9.7A15.59,15.59,0,0,1,116.93,354Z" transform="translate(-50.11 -101.93)"/><path class="cls-7" d="M490.36,352.84H422.11l65.69,12A27.8,27.8,0,0,0,490.36,352.84Z" transform="translate(-50.11 -101.93)"/><path class="cls-2" d="M223.85,373.66,265.54,328s-8.12-41.46-8.47-59.49c-.41-20.77,1.21-33.43,8.16-44.66,5.93-9.56,18.74-3.8,13,9,0,0-4.16,13.38-4.77,33.71,0,0,2.85-22.14,12.09-35.51s20.63-18.8,25.31-17.07c4.87,1.81,9,7-5.38,19.81S289.69,256.26,287.7,265c0,0,5.54-19.73,25.24-29.54s33.2,2.67,29.41,10-11.18,1.09-21.84,4.42a26.67,26.67,0,0,0-17.78,17.58s-1.43-.4,17.69-6.63c18.8-6.13,34.49,7.6,39.32,20.9s-9,11.18-17.86-.45-31.77-2.47-33.94,12.44c-2,13.95,12.61,26.08,25.42,20.19s11.73-20.55,22.15-21c6.66-.28,9.39,1.46,9.34,11s-20.51,41.52-60.62,44.74l-20.36,29.54" transform="translate(-50.11 -101.93)"/></svg>